<?xml version="1.0" encoding="utf-8"?>
<!-- Generator: Adobe Illustrator 24.0.3, SVG Export Plug-In . SVG Version: 6.00 Build 0) -->
<svg version="1.1" id="Layer_1" xmlns="http://www.w3.org/2000/svg" xmlns:xlink="http://www.w3.org/1999/xlink" x="0px" y="0px" viewBox="0 0 110.6 40" style="enable-background:new 0 0 110.6 40;" xml:space="preserve">
	<style type="text/css">
		.st0{fill:#3887F7;}
		.st1{fill:#5051DB;}
	</style>
	<path class="st0" d="M16.9,20v20l16.9-10V10L16.9,20z" />
	<path class="st1" d="M16.9,0L0,10v20l16.9-10V0z" />
	<path d="M43.6,22.9c0-2.5,1.7-4.3,5.6-4.3h3.1v-0.8c0-1.1-0.7-2-2.4-2c-1.5,0-2.3,0.8-2.3,1.8h-3.4c0-2.6,2-4.8,5.8-4.8
	c3.8,0,5.9,2.1,5.9,5V27h-3.2l-0.3-1.5h-0.1c-0.8,1-2.1,1.7-3.9,1.7C45.4,27.2,43.6,25.3,43.6,22.9z M52.4,21.8V21h-2.8
	c-1.6,0-2.3,0.7-2.3,1.7c0,1,0.7,1.7,2.2,1.7C51.2,24.4,52.4,23.2,52.4,21.8z M57.7,20c0-4.2,2.4-7.2,6.7-7.2c4,0,6.1,2.4,6.3,5.6
	H67c-0.1-1.4-1.1-2.4-2.6-2.4c-2,0-3.1,1.5-3.1,4.1c0,2.6,1,4.1,3.1,4.1c1.6,0,2.5-0.9,2.7-2.3h3.6c-0.2,3.1-2.3,5.5-6.2,5.5
	C60.1,27.2,57.7,24.3,57.7,20z M93.8,17.8V27h-3.6v-8.1c0-1.7-0.7-2.8-2.4-2.8c-1.7,0-2.7,1.2-2.7,3.2V27h-3.6v-8.1
	c0-1.7-0.7-2.8-2.4-2.8c-1.7,0-2.8,1.2-2.8,3.2V27h-3.6V13h3.2l0.3,1.6h0.1c0.8-1,2-1.8,3.9-1.8c2,0,3.4,0.8,4.2,2.1h0.1
	c0.7-1.1,2.1-2.1,4.3-2.1C91.8,12.8,93.8,14.7,93.8,17.8z M95.5,20c0-4,2.2-7.3,6.7-7.3c4.2,0,6.5,3,6.5,6.8V21h-9.5
	c0,1.9,1,3.2,3.1,3.2c1.6,0,2.5-0.8,2.7-1.6h3.5c-0.4,2.5-2.7,4.6-6.3,4.6C97.9,27.2,95.5,24.1,95.5,20z M105,18.6
	c-0.1-1.6-0.9-2.8-2.8-2.8c-2,0-2.9,1.2-3,2.8H105z" />
</svg>
